<?xml version="1.0" encoding="UTF-8"?>
<svg xmlns="http://www.w3.org/2000/svg" xmlns:xlink="http://www.w3.org/1999/xlink" width="135pt" height="135pt" viewBox="0 0 135 135" version="1.1">
<g id="surface1">
<path style=" stroke:none;fill-rule:nonzero;fill:rgb(36.862745%,36.862745%,36.862745%);fill-opacity:1;" d="M 135.058594 67.527344 C 135.058594 104.824219 104.824219 135.058594 67.527344 135.058594 C 30.234375 135.058594 0 104.824219 0 67.527344 C 0 30.234375 30.234375 0 67.527344 0 C 104.824219 0 135.058594 30.234375 135.058594 67.527344 Z M 135.058594 67.527344 "/>
<path style=" stroke:none;fill-rule:nonzero;fill:rgb(89.019608%,89.019608%,89.019608%);fill-opacity:1;" d="M 75.933594 72.457031 C 78.398438 73.324219 80.644531 74.558594 82.671875 76.078125 C 84.699219 77.601562 86.367188 79.410156 87.742188 81.511719 C 89.121094 83.613281 90.207031 85.789062 90.929688 88.25 C 91.65625 90.714844 92.089844 93.179688 92.089844 95.859375 L 88.613281 95.859375 C 88.613281 92.816406 88.105469 90.0625 87.019531 87.457031 C 85.933594 84.847656 84.484375 82.597656 82.597656 80.714844 C 80.714844 78.832031 78.46875 77.308594 75.933594 76.222656 C 73.398438 75.136719 70.570312 74.628906 67.601562 74.628906 C 65.644531 74.628906 63.761719 74.847656 61.949219 75.355469 C 60.136719 75.863281 58.472656 76.585938 56.878906 77.457031 C 55.285156 78.398438 53.90625 79.484375 52.601562 80.714844 C 51.296875 82.019531 50.210938 83.398438 49.34375 84.992188 C 48.472656 86.585938 47.75 88.25 47.242188 90.0625 C 46.734375 91.875 46.515625 93.757812 46.515625 95.785156 L 43.039062 95.785156 C 43.039062 93.105469 43.402344 90.570312 44.199219 88.179688 C 44.996094 85.789062 46.082031 83.542969 47.457031 81.511719 C 48.835938 79.484375 50.574219 77.671875 52.601562 76.152344 C 54.632812 74.628906 56.804688 73.398438 59.34375 72.457031 C 57.890625 71.660156 56.660156 70.714844 55.5 69.628906 C 54.339844 68.542969 53.398438 67.3125 52.601562 65.9375 C 51.804688 64.558594 51.226562 63.109375 50.792969 61.589844 C 50.355469 60.066406 50.140625 58.472656 50.140625 56.878906 C 50.140625 54.414062 50.574219 52.167969 51.515625 49.996094 C 52.457031 47.820312 53.691406 46.007812 55.285156 44.34375 C 56.878906 42.75 58.761719 41.445312 60.863281 40.574219 C 62.964844 39.632812 65.28125 39.199219 67.671875 39.199219 C 70.136719 39.199219 72.382812 39.632812 74.484375 40.574219 C 76.585938 41.519531 78.46875 42.75 80.066406 44.34375 C 81.65625 45.9375 82.890625 47.820312 83.832031 49.996094 C 84.773438 52.167969 85.207031 54.414062 85.207031 56.878906 C 85.207031 58.472656 84.992188 60.066406 84.554688 61.589844 C 84.121094 63.109375 83.542969 64.558594 82.746094 65.863281 C 81.949219 67.242188 81.007812 68.46875 79.847656 69.558594 C 78.613281 70.789062 77.308594 71.730469 75.933594 72.457031 Z M 53.472656 56.949219 C 53.472656 58.90625 53.835938 60.71875 54.558594 62.457031 C 55.285156 64.195312 56.300781 65.644531 57.601562 66.949219 C 58.90625 68.253906 60.355469 69.269531 62.09375 69.992188 C 63.761719 70.714844 65.644531 71.078125 67.527344 71.078125 C 69.484375 71.078125 71.296875 70.714844 72.964844 69.992188 C 74.628906 69.269531 76.152344 68.253906 77.457031 66.949219 C 78.761719 65.644531 79.703125 64.195312 80.5 62.457031 C 81.222656 60.71875 81.585938 58.90625 81.585938 56.949219 C 81.585938 54.996094 81.222656 53.183594 80.5 51.445312 C 79.773438 49.707031 78.761719 48.253906 77.457031 46.949219 C 76.152344 45.648438 74.703125 44.632812 72.964844 43.90625 C 71.296875 43.183594 69.414062 42.820312 67.527344 42.820312 C 65.574219 42.820312 63.761719 43.183594 62.09375 43.90625 C 60.429688 44.632812 58.90625 45.648438 57.601562 46.949219 C 56.300781 48.253906 55.355469 49.707031 54.558594 51.445312 C 53.835938 53.109375 53.472656 54.996094 53.472656 56.949219 Z M 53.472656 56.949219 "/>
</g>
</svg>
